<?xml version="1.0" encoding="utf-8"?>
<!-- Generator: Adobe Illustrator 27.0.1, SVG Export Plug-In . SVG Version: 6.00 Build 0)  -->
<svg version="1.1" id="Layer_1" xmlns="http://www.w3.org/2000/svg" xmlns:xlink="http://www.w3.org/1999/xlink" x="0px" y="0px"
	 viewBox="0 0 498.2 384.2" style="enable-background:new 0 0 498.2 384.2;" xml:space="preserve">
<style type="text/css">
	.st0{fill:#CFD4DE;}
	.st1{fill:#2F4A77;}
	.st2{fill:#0A7BFF;}
	.st3{fill:#48A4FF;}
	.st4{fill:none;stroke:#2F4A77;stroke-linecap:round;stroke-linejoin:round;stroke-miterlimit:10;}
	.st5{fill:none;}
</style>
<g>
	<g>
		<path class="st0" d="M435.1,323.1c0,0-8,0.8-7.5-4.6c0.5-5.3,3.5-11.8,0-8.8c-3.5,3-3.5,10.8-5,7.4c-1.5-3.4,0.5-10.9-2-8.1
			c-2.5,2.7-5,8.1-7,5.2c-0.9-1.4-10-4.5-19.7-7.5c-1.3,0.3-2.4,0.6-3.5,0.7c-1.5,0.2-2.9,0.3-4.2,0.3h-0.2c0.3,0.1,0.6,0.2,0.9,0.3
			c1.1,0.3,1.9,0.3,2.7,0.2c1,0,2.1-0.1,3.5,0.6c0.8,0.3,1.2,0.8,1,1.4c-0.1,0.4-0.2,1.3-4.8,1.4h0c-0.4,0-0.8-0.3-0.8-0.8
			c0-0.4,0.3-0.8,0.8-0.8c0.7,0,1.5-0.1,2.1-0.2c-0.6-0.1-1.1-0.1-1.7-0.1c-0.9,0-1.9,0.1-3.3-0.3c-2-0.6-2.8-1.4-3.2-2
			c-2.7-0.3-4.4-0.8-4.5-0.9c-0.4-0.1-0.6-0.6-0.5-1c0.1-0.4,0.6-0.6,1-0.5c0,0,4.7,1.5,11,0.6c0.2,0,0.4-0.1,0.6-0.1
			c-2.4-0.7-4.9-1.5-7.2-2.1c-2.8,1-4.5,1.3-4.7,1.3c0,0-0.1,0-0.1,0c-0.4,0-0.7-0.3-0.8-0.6c-0.1-0.4,0.2-0.8,0.6-0.9
			c0,0,0.8-0.1,2.2-0.6c-1-0.3-2-0.6-3-0.8c-0.2,0.7-0.5,1.4-0.7,2.1c-0.1,0.4-0.6,0.7-1,0.5s-0.7-0.6-0.5-1
			c0.2-0.7,0.4-1.4,0.7-2.1c-1.7-0.5-3.2-0.9-4.3-1.2c0,0.3-0.1,0.6-0.4,0.8c-0.1,0-0.2,0.1-0.3,0.1c-0.3,0-0.6-0.2-0.7-0.5
			c0,0-0.1-0.3-0.4-0.8c-0.2,0-0.3-0.1-0.4-0.1c-2.5-0.4-1.8-5-2-6.5c0,0,0,0,0,0c0-0.1-0.1-0.3-0.1-0.4c0,0-0.1-0.1-0.1-0.1
			c-4.2-0.8,0,6-4.6,4.1c-0.1,0-0.2-0.1-0.3-0.1c4.1,5.4,8.6,6.3,8.7,6.3c0.4,0.1,0.7,0.5,0.6,0.9c-0.1,0.4-0.4,0.6-0.8,0.6
			c0,0-0.1,0-0.1,0c-0.1,0-0.9-0.2-2.1-0.7c-0.3,0.5-0.7,1.1-1.4,1.5c-1.1,0.6-1.9-0.4-2.5-1.1c0,0,0-0.1-0.1-0.1
			c0.3,0.5,0.8,1,1.3,1.5c0.3,0.3,0.3,0.8,0,1.1c-0.1,0.2-0.4,0.3-0.6,0.3c-0.2,0-0.4-0.1-0.5-0.2c-0.7-0.6-2.3-2.3-2.2-3.5
			c0-0.4,0.2-0.8,0.6-1c1.1-0.8,2.1,0.3,2.6,1c0.2,0.2,0.6,0.6,0.6,0.7c0.3-0.2,0.6-0.5,0.7-0.8c-2.1-1.2-4.9-3.3-7.4-7.2
			c-5.9-1.3-16.2-1.9-21.2-4.9c-2.1-1.3-17.2-3.4-39.5-4.9c2,6.8,3.7,10.3,4.9,12c1.4-1.4,3.1-2.4,3.8-2.3
			c1.5,0.1,11.1,4.1,18.6,4.5c7.4,0.4,13.3-0.9,15.4,0.1c0.6,0.3,1.1,0.6,1.6,1c0.1-0.3,0.3-0.6,0.6-0.6c0.9-0.2,2.8,0,3.9,2.3
			c1.3,2.5,2.3,5.2-0.2,8.3c-2,2.5-9.2,8.5-17.5,9.8c-4,0.6-7.7,0.2-10.8-0.1c-2.7-0.3-5-0.6-6,0.2c-0.5,0.4-1,0.8-1.5,1.2
			c-1.9,1.6-4.1,3.3-7.5,4.2c-1.7,0.4-3.8,0.7-6,0.7c-3.6,0-7.5-0.6-10.4-2.1c-4.7-2.4-5.6-5.2-3.3-9.8c0.1-0.3,0.5-0.5,0.8-0.4
			c0.2-2.6,0.8-10.7,1.3-11.2c0.2-0.1,0.8-0.2,1.6-0.2c-0.9-5.3-5-14.7-6.7-18.3c-40.1-1.6-94.3-0.5-139.4,9.4c-4.5,1-8.8,2-13,3.1
			c-3,0.8-6,1.6-8.8,2.4c-3.1,5.2-6.4,8.5-6.7,8.7c-0.1,0.1-0.3,0.2-0.5,0.2c-0.2,0-0.4-0.1-0.6-0.2c-0.3-0.3-0.3-0.8,0-1.1
			c0.1-0.1,2.7-2.7,5.5-6.9c-1.1,0.3-2.2,0.7-3.3,1c-0.6,1.7-1.3,3.4-2,5c-0.1,0.3-0.4,0.5-0.7,0.5c-0.1,0-0.2,0-0.3-0.1
			c-0.4-0.2-0.6-0.6-0.4-1c0.5-1.2,1.1-2.5,1.5-3.8c-1.1,0.3-2.2,0.7-3.2,1v0c0.1,0.8,0.2,1.7,0.4,2.4c0,0,0,0,0,0
			c0.2,0.7,0.4,1.5,0.6,2.3c0.1,0.4-0.2,0.8-0.6,0.9c-0.4,0.1-0.8-0.2-0.9-0.6c-0.2-0.8-0.4-1.5-0.6-2.3c-0.2-0.7-0.5-1.4-0.8-2.2
			c-1,0.3-1.9,0.7-2.9,1c1.5,1.5,2.5,2.3,2.6,2.4c0.3,0.3,0.4,0.8,0.1,1.1c-0.2,0.2-0.4,0.3-0.6,0.3c-0.2,0-0.4-0.1-0.5-0.2
			c-0.1-0.1-1.4-1.2-3.2-3c-0.7,0.3-1.5,0.6-2.2,0.8c4.4,3,7.7,2.6,7.7,2.5c0.4-0.1,0.8,0.2,0.9,0.7c0.1,0.4-0.2,0.8-0.7,0.9
			c-0.1,0-0.3,0-0.8,0c-0.8,0-2.1-0.1-3.8-0.7c-2.7,1-6.4-0.1-9.2-1.1c0,0-0.1,0-0.1,0.1c0,0,0,0.1,0.1,0.1c0.5,0.8,1,1.5,1.2,2.2
			c0.1,0.6-0.1,1-0.3,1.1c-0.1,0.1-0.1,0.1-0.2,0.2c0.5,0.2,1.1,0.3,1.6,0.5c0.4,0.1,0.6,0.6,0.5,1c-0.1,0.3-0.4,0.6-0.8,0.6
			c-0.1,0-0.1,0-0.2,0c-4.8-1.5-7.1-2.3-8.2-2.8c-6.2,2.8-12.6,6.1-19.2,9.8c0,0,0,0,0,0c0,0,0,0-0.1,0
			c-33.4,19.2-55.6,43.4-69.1,61.4h496.4C497.3,382.8,478.3,348.9,435.1,323.1z M130.9,307.2c-0.2,0.4-0.6,0.6-1,0.4
			c-1.7-0.8-1.5-3.2-1.3-4.7c0-0.1,0-0.2,0-0.3c-0.1,0.1-0.1,0.1-0.2,0.2c-0.8,0.7-1.6,1.3-2.3,1c-0.2-0.1-0.6-0.3-0.7-0.9
			c0-0.2-0.1-0.4-0.3-0.4c-0.4-0.1-1.4,0.2-2.6,1.6c-2.5,2.7-5.6,4.3-5.7,4.4c-0.1,0.1-0.2,0.1-0.4,0.1c-0.3,0-0.6-0.1-0.7-0.4
			c-0.2-0.4-0.1-0.9,0.3-1.1c0,0,3-1.6,5.3-4.1c2.1-2.2,3.5-2.2,4.2-2c0.6,0.2,1,0.6,1.3,1.1c0.2-0.2,0.5-0.4,0.7-0.5
			c0.8-0.7,1.5-1.2,2.2-0.8c0.6,0.4,0.6,1.1,0.5,2.3c-0.1,1.1-0.2,2.8,0.4,3.2C130.9,306.3,131.1,306.8,130.9,307.2z"/>
		<path class="st0" d="M111.3,308c0.1,0.4-0.2,0.8-0.6,0.9c-0.4,0.1-0.8-0.2-0.9-0.6c-0.2-0.8-0.4-1.5-0.6-2.3
			c-0.2-0.7-0.5-1.4-0.8-2.2c-1,0.3-1.9,0.7-2.9,1c1.5,1.5,2.5,2.3,2.6,2.4c0.3,0.3,0.4,0.8,0.1,1.1c-0.2,0.2-0.4,0.3-0.6,0.3
			c-0.2,0-0.4-0.1-0.5-0.2c-0.1-0.1-1.4-1.2-3.2-3c-0.7,0.3-1.5,0.6-2.2,0.8c4.4,3,7.7,2.6,7.7,2.5c0.4-0.1,0.8,0.2,0.9,0.7
			c0.1,0.4-0.2,0.8-0.7,0.9c-0.1,0-0.3,0-0.8,0c-0.8,0-2.1-0.1-3.8-0.7c-2.7,1-6.4-0.1-9.2-1.1c0,0-0.1,0-0.1,0.1c0,0,0,0.1,0.1,0.1
			c0.5,0.8,1,1.5,1.2,2.2c0.1,0.6-0.1,1-0.3,1.1c-0.1,0.1-0.1,0.1-0.2,0.2c0.5,0.2,1.1,0.3,1.6,0.5c0.4,0.1,0.6,0.6,0.5,1
			c-0.1,0.3-0.4,0.6-0.8,0.6c-0.1,0-0.1,0-0.2,0c-4.8-1.5-7.1-2.3-8.2-2.8c-6.2,2.8-12.6,6.1-19.2,9.8c5.1-3.2,11.3-6.6,18.9-10
			c1-0.5,2-0.9,3.1-1.4c0.6-0.3,1.3-0.5,1.9-0.8c0.5-0.2,1-0.4,1.5-0.6h0c0.7-0.3,1.5-0.6,2.2-0.9c0.6-0.3,1.3-0.5,2-0.8
			c0.6-0.2,1.2-0.5,1.8-0.7c0.7-0.3,1.5-0.6,2.3-0.8c0.5-0.2,1.1-0.4,1.6-0.6c1-0.3,1.9-0.7,2.9-1c0.1,0,0.2-0.1,0.4-0.1
			c0.3-0.1,0.5-0.2,0.8-0.3c0.1,0,0.2-0.1,0.3-0.1c0.1,0,0.3-0.1,0.4-0.1c0.1,0.8,0.2,1.7,0.4,2.4c0,0,0,0,0,0
			C110.9,306.5,111.1,307.2,111.3,308z"/>
		<path class="st0" d="M112.7,307.1c-0.1,0-0.2,0-0.3-0.1c-0.4-0.2-0.6-0.6-0.4-1c0.5-1.2,1.1-2.5,1.5-3.8c0.6-0.2,1.2-0.4,1.9-0.6
			c-0.6,1.7-1.3,3.4-2,5C113.2,306.9,113,307.1,112.7,307.1z"/>
		<path class="st0" d="M120.9,300c-3.1,5.2-6.4,8.5-6.7,8.7c-0.1,0.1-0.3,0.2-0.5,0.2c-0.2,0-0.4-0.1-0.6-0.2
			c-0.3-0.3-0.3-0.8,0-1.1c0.1-0.1,2.7-2.7,5.5-6.9C119.4,300.4,120.2,300.2,120.9,300z"/>
		<path class="st0" d="M130.9,307.2c-0.2,0.4-0.6,0.6-1,0.4c-1.7-0.8-1.5-3.2-1.3-4.7c0-0.1,0-0.2,0-0.3c-0.1,0.1-0.1,0.1-0.2,0.2
			c-0.8,0.7-1.6,1.3-2.3,1c-0.2-0.1-0.6-0.3-0.7-0.9c0-0.2-0.1-0.4-0.3-0.4c-0.4-0.1-1.4,0.2-2.6,1.6c-2.5,2.7-5.6,4.3-5.7,4.4
			c-0.1,0.1-0.2,0.1-0.4,0.1c-0.3,0-0.6-0.1-0.7-0.4c-0.2-0.4-0.1-0.9,0.3-1.1c0,0,3-1.6,5.3-4.1c2.1-2.2,3.5-2.2,4.2-2
			c0.6,0.2,1,0.6,1.3,1.1c0.2-0.2,0.5-0.4,0.7-0.5c0.8-0.7,1.5-1.2,2.2-0.8c0.6,0.4,0.6,1.1,0.5,2.3c-0.1,1.1-0.2,2.8,0.4,3.2
			C130.9,306.3,131.1,306.8,130.9,307.2z"/>
		<path class="st0" d="M348.4,303c1.3,2.5,2.3,5.2-0.2,8.3c-2,2.5-9.2,8.5-17.5,9.8c-4,0.6-7.7,0.2-10.8-0.1c-2.7-0.3-5-0.6-6,0.2
			c-0.5,0.4-1,0.8-1.5,1.2c-1.9,1.6-4.1,3.3-7.5,4.2c-1.7,0.4-3.8,0.7-6,0.7c-3.6,0-7.5-0.6-10.4-2.1c-4.7-2.4-5.6-5.2-3.3-9.8
			c0.1-0.3,0.5-0.5,0.8-0.4c0.2-2.6,0.8-10.7,1.3-11.2c0.2-0.1,0.8-0.2,1.6-0.2c-0.9-5.3-5-14.7-6.7-18.3c0.6,0,1.2,0,1.7,0.1
			c5,0.2,9.7,0.5,14.2,0.7c0.6,0,1.1,0.1,1.7,0.1c2,6.8,3.7,10.3,4.9,12c1.4-1.4,3.1-2.4,3.8-2.3c1.5,0.1,11.1,4.1,18.6,4.5
			c7.4,0.4,13.3-0.9,15.4,0.1c0.6,0.3,1.1,0.6,1.6,1c0.1-0.3,0.3-0.6,0.6-0.6C345.3,300.5,347.3,300.7,348.4,303z"/>
		<path class="st0" d="M368,293.2c0-0.1-0.1-0.3-0.1-0.4C367.9,292.9,367.9,293,368,293.2z"/>
		<path class="st0" d="M372.1,303.9c-0.1,0.4-0.4,0.6-0.8,0.6c0,0-0.1,0-0.1,0c-0.1,0-0.9-0.2-2.1-0.7c-0.3,0.5-0.7,1.1-1.4,1.5
			c-1.1,0.6-1.9-0.4-2.5-1.1c0,0,0-0.1-0.1-0.1c0.3,0.5,0.8,1,1.3,1.5c0.3,0.3,0.3,0.8,0,1.1c-0.1,0.2-0.4,0.3-0.6,0.3
			c-0.2,0-0.4-0.1-0.5-0.2c-0.7-0.6-2.3-2.3-2.2-3.5c0-0.4,0.2-0.8,0.6-1c1.1-0.8,2.1,0.3,2.6,1c0.2,0.2,0.6,0.6,0.6,0.7
			c0.3-0.2,0.6-0.5,0.7-0.8c-2.1-1.2-4.9-3.3-7.4-7.2c1,0.2,1.8,0.5,2.5,0.7c4.1,5.4,8.6,6.3,8.7,6.3
			C371.9,303.1,372.2,303.5,372.1,303.9z"/>
		<path class="st0" d="M370.4,299.8c0.4,0.1,1,0.2,1.8,0.5c0,0.3-0.1,0.6-0.4,0.8c-0.1,0-0.2,0.1-0.3,0.1c-0.3,0-0.6-0.2-0.7-0.5
			C370.7,300.6,370.6,300.3,370.4,299.8z"/>
		<path class="st0" d="M376.6,301.4c0.5,0.1,1,0.3,1.5,0.4c-0.2,0.7-0.5,1.4-0.7,2.1c-0.1,0.4-0.6,0.7-1,0.5s-0.7-0.6-0.5-1
			C376.1,302.8,376.3,302.1,376.6,301.4z"/>
		<path class="st0" d="M378.2,304.1c-0.1-0.4,0.2-0.8,0.6-0.9c0,0,0.8-0.1,2.2-0.6c0.9,0.3,1.8,0.5,2.7,0.8c-2.8,1-4.5,1.3-4.7,1.3
			c0,0-0.1,0-0.1,0C378.6,304.8,378.3,304.5,378.2,304.1z"/>
		<path class="st0" d="M394.4,310.1c-0.1,0.4-0.2,1.3-4.8,1.4h0c-0.4,0-0.8-0.3-0.8-0.8c0-0.4,0.3-0.8,0.8-0.8
			c0.7,0,1.5-0.1,2.1-0.2c-0.6-0.1-1.1-0.1-1.7-0.1c-0.9,0-1.9,0.1-3.3-0.3c-2-0.6-2.8-1.4-3.2-2c-2.7-0.3-4.4-0.8-4.5-0.9
			c-0.4-0.1-0.6-0.6-0.5-1c0.1-0.4,0.6-0.6,1-0.5c0,0,4.7,1.5,11,0.6c0.2,0,0.4-0.1,0.6-0.1c1,0.3,2.1,0.6,3.1,0.9
			c-1.3,0.3-2.4,0.6-3.5,0.7c-1.5,0.2-2.9,0.3-4.2,0.3h-0.2c0.3,0.1,0.6,0.2,0.9,0.3c1.1,0.3,1.9,0.3,2.7,0.2c1,0,2.1-0.1,3.5,0.6
			C394.2,309,394.5,309.5,394.4,310.1z"/>
		<g>
			<g>
				<path class="st1" d="M294.5,195.2c0.2,0,0.5-0.1,0.6-0.3c2.1-3,6-11.6,6.4-15.6c0.4-4-1.9-13.5-2-13.9c-0.1-0.4-0.5-0.7-0.9-0.6
					c-0.4,0.1-0.7,0.5-0.6,0.9c0,0.1,2.3,9.7,1.9,13.4c-0.4,3.7-4.1,12.1-6.1,14.8c-0.2,0.4-0.2,0.8,0.2,1.1
					C294.2,195.1,294.4,195.2,294.5,195.2z"/>
				<path class="st2" d="M273,267.8c-0.4-1.1-0.8-2.2-1.1-3.1c-2.6-6.9-2.3-26.4-2.3-28.6l0.1-0.6c0.3-1,2.7-9.7,5-13.2
					c-0.5-0.6-1.8-1.4-2.6-1.9c-1.9-1.2-3.8-2.4-4.1-4.3c-0.6-0.3-2-0.7-2.9-1c-1-0.3-2-0.5-2.8-0.9c-4.4-1.8-15.9-27.2-17.9-36.5
					c-2.6-12,2.4-16.5,2.9-16.9l3,3.6c0,0-3.4,3.3-1.4,12.4c2.3,10.8,12.9,31,15.3,33.2c0.6,0.2,1.3,0.4,2.1,0.6
					c2.5,0.7,5.8,1.6,6.3,4.5c0.4,0.4,1.3,1,2,1.4c2,1.3,4.3,2.7,4.8,5c0.2,1.1,0,2.2-0.7,3.1c-1.5,2.2-3.6,9.1-4.4,11.9
					c-0.1,6,0.1,21.5,2,26.5c0.4,1,0.8,2.1,1.2,3.3c2.2,6.2,5.6,15.1,11.2,16.6l-5.1,0.4C275.5,281.1,275.4,274.7,273,267.8z
					 M272.6,215.5C272.6,215.5,272.6,215.5,272.6,215.5C272.6,215.5,272.6,215.5,272.6,215.5z"/>
				<path class="st2" d="M196.7,236.5c3.7-1.8,13.3-3.7,19-4.9c2.5-0.5,4.6-1,6.2-1.4c3.4-0.9,5.7,0.1,7.8,0.9
					c0.8,0.3,1.5,0.6,2.2,0.8c2.9,0.7,4.9-2.1,6.3-4.2c0.2-0.2,0.3-0.5,0.5-0.7c0,0,0,0,0,0c1.8,1.1,4.3,2.5,6.7,1.8
					c1.1-0.3,2-1.1,2.6-2.2c0.7-1.4,1.1-2.9,1.4-4.1c0.4-1.9,0.8-3.1,1.7-3.8c3.2-2.5,3.2-3.7,3.2-4.1l-2.4-3.9c0,0-1.9,2.9-3.8,4.3
					c-2.2,1.8-2.8,4.2-3.3,6.4c-0.2,1-0.5,2-0.9,2.9c-0.7-0.1-2.2-1-2.8-1.4c-0.9-0.5-1.5-0.9-2.1-1c-2.1-0.5-3.4,1.3-4.6,3.1
					c-0.4,0.6-1.2,1.8-1.7,2.2c-0.3-0.1-0.7-0.3-1.2-0.5c-2.3-1-5.9-2.4-10.8-1.1c-1.5,0.4-3.6,0.8-6,1.3
					c-6.3,1.3-12.4,3.1-16.6,5.2L196.7,236.5z"/>
				<path class="st1" d="M170.2,261.8c0.1,0,0.3,0,0.4-0.1c8.7-5.7,28.3-7.3,28.5-7.3c0.4,0,0.8-0.4,0.7-0.8c0-0.4-0.4-0.8-0.8-0.7
					c-0.8,0.1-20.2,1.6-29.2,7.5c-0.4,0.2-0.5,0.7-0.2,1.1C169.7,261.7,169.9,261.8,170.2,261.8z"/>
				<path class="st1" d="M175.8,246.1c-0.4-0.3-0.6-0.7-0.6-1.1c0-0.4,0.3-0.8,0.8-0.8c0.4,0,0.7,0.3,0.8,0.6c0.1,0,0.6,0.1,1.8-0.2
					c2.1-0.6,12.5-6.1,17.8-8.9c0.4-0.2,0.9-0.1,1.1,0.3c0.2,0.4,0.1,0.9-0.3,1.1c-0.6,0.3-15.3,8.2-18.1,9
					c-0.7,0.2-1.3,0.3-1.8,0.3C176.6,246.5,176.1,246.4,175.8,246.1z M176.8,245.1L176.8,245.1L176.8,245.1z"/>
				<g>
					<path class="st1" d="M169,236.1c0,0,7.4,7.2,7.4,8c0,0.8-5.3,5.5-5.7,7c-0.4,1.6-3.9-0.4-4.9,0s-0.8,3.1,1.9,3.7
						c2.7,0.6,2.5,7.6,1.6,8.6c-1,1-9.4,5.3-14,10.1c-4.7,4.9-7.2,9.7-9.2,10.5c-1.9,0.8-3.9,1.4-4.5-2.5
						c-0.6-3.9-1.2-12.3,3.9-18.3c5.1-6,7.2-6.6,8.8-6.6c1.6,0,4.1,0.2,3.1-1.9c-1-2.1-3.1-4.1-2.3-5.8
						C155.9,247,162,235.5,169,236.1z"/>
					<path class="st1" d="M141.9,286.9c1.6,0,2.5-0.9,2.8-1.5c0.2-0.4,0-0.9-0.3-1c-0.4-0.2-0.8,0-1,0.3c-0.1,0.1-0.6,1-2.2,0.6
						c-2.2-0.6-4-1.2-4.5-3.9c-0.6-3-0.1-11,3.4-16.8c1.8-2.9,4.2-5.2,6.2-7c2.1-2,3.8-3.5,3.9-5.2c0-0.6,0.1-1.2,0.1-1.8
						c0.1-2.2,0.1-4.4,1.4-7c1.8-3.5,6-8.1,9.9-9.8c3.6-1.5,5.3-0.8,6.8,2.7c0.2,0.4,0.6,0.6,1,0.4c0.4-0.2,0.6-0.6,0.4-1
						c-1.8-4.3-4.4-5.4-8.8-3.5c-4.5,1.8-8.9,6.8-10.7,10.5c-1.5,2.9-1.5,5.4-1.6,7.7c0,0.6,0,1.2-0.1,1.8c-0.1,1.1-1.6,2.5-3.4,4.2
						c-2,1.9-4.5,4.2-6.4,7.4c-4,6.5-4.2,15-3.6,17.9c0.7,3.6,3.2,4.5,5.6,5.1C141.2,286.9,141.6,286.9,141.9,286.9z"/>
				</g>
				<path class="st1" d="M280.7,164.8c3.8,0,10.8-0.5,14.4-3.9c2-1.8,2.9-3.3,3.8-4.5c0.7-1.1,1.4-2.1,2.5-3.1c3-2.8,1.8-6,1.7-6.2
					c-0.2-0.4-0.6-0.6-1-0.4c-0.4,0.2-0.6,0.6-0.4,1c0,0.1,0.9,2.4-1.3,4.5c-1.3,1.2-2,2.3-2.8,3.4c-0.8,1.3-1.7,2.6-3.5,4.3
					c-3.7,3.5-12.1,3.5-14.5,3.4c-0.4,0-0.8,0.3-0.8,0.8c0,0.4,0.3,0.8,0.8,0.8C279.8,164.8,280.2,164.8,280.7,164.8z"/>
				<path class="st1" d="M275,171.7c7.7,0,15.1-1.4,19.1-3c8.3-3.2,8-6.7,7.7-7.7c-0.1-0.4-0.2-0.7-0.4-1c-0.3-0.8-0.4-1.1,0-1.8
					c1.1-1.7,0.2-5.3,0.1-5.7c-0.1-0.4-0.5-0.7-1-0.6c-0.4,0.1-0.7,0.5-0.6,1c0.4,1.4,0.6,3.7,0.1,4.4c-0.9,1.4-0.6,2.4-0.2,3.3
					c0.1,0.3,0.2,0.5,0.3,0.9c0.4,1.3-1.2,3.6-6.8,5.8c-6.7,2.6-23.9,4.9-34.1,0c-16.5-7.9-17.7-10.9-17.6-11.6
					c0-0.7,0.1-1.4,0.2-2.2c0.2-2.2,0.5-4.6-0.2-6.5c-0.9-2.4-1.8-4.7-0.9-7.7c0.7-2.1,0.8-5.2,1-8.2c0.1-1.8,0.2-3.6,0.4-4.9
					c0.6-3.7,1.7-6.4,2.2-6.8c0.3-0.3,0.4-0.8,0.1-1.1c-0.3-0.3-0.8-0.4-1.1-0.1c-1.1,0.9-2.3,4.7-2.7,7.8c-0.2,1.4-0.3,3.2-0.4,5
					c-0.1,2.9-0.3,5.9-0.9,7.8c-1.1,3.5,0,6.2,0.9,8.6c0.6,1.6,0.4,3.8,0.2,5.9c-0.1,0.8-0.2,1.5-0.2,2.2c-0.1,1.7,1.7,5,18.5,13.1
					C263.3,170.9,269.2,171.7,275,171.7z"/>
				<path class="st1" d="M204.8,173.1c4,0,8.4-0.9,10.4-1.3c3.1-0.7,3.8-4.8,4.2-7.8c0.2-1.1,0.4-2.8,0.7-3c1.9-1.2,2.2-2.3,2.2-5.2
					c0-1.5,0.8-2.6,1.8-3.9c0.6-0.8,1.2-1.6,1.7-2.6c1.1-2.2,4.9-12.8,3.9-15.9c-0.6-2.1,2-7,6.3-8.7c4.7-1.8,14-7.6,14.4-7.9
					c0.4-0.2,0.5-0.7,0.3-1.1c-0.2-0.4-0.7-0.5-1.1-0.3c-0.1,0.1-9.6,6-14.2,7.7c-4.9,1.9-8.1,7.5-7.2,10.6c0.7,2.2-2.5,12-3.8,14.8
					c-0.4,0.9-1,1.7-1.6,2.4c-1.1,1.4-2.1,2.8-2.1,4.8c0,2.7-0.3,3.1-1.5,3.9c-0.9,0.6-1.1,2-1.4,4.1c-0.4,2.7-0.9,6.1-3,6.5
					c-7.2,1.7-15.4,2.1-16.2-0.8c-0.7-2.5-0.4-6.4-0.1-9.8c0.2-2.5,0.4-4.9,0.2-6.5c-0.3-2.4,4.1-19,6.7-28.9
					c1.3-4.8,2.3-8.6,2.6-10.1c0.9-4.4,28.2-24.1,35.1-27c6-2.4,15-5.6,23.6-5.4c0.2,0,0.5-0.1,0.6-0.3c1.5-1.7,3.5-3.7,4.3-4.1
					c0.1,0.1,0.3,0.3,0.5,0.5c1.9,2,6.2,6.7,12.4,5.9c5.4-0.7,8.5-1.9,10-2.6c0,0.6,0.1,1.4,0.7,2c0,0,0.1,0.1,0.1,0.1
					c0.1,0.1,3.3,2.1,12.1,1.3c8.5-0.8,13.1-1.2,21.3-9.3c2.3-2.3,4.9-5,7.7-8c6.5-6.9,13.9-14.6,16.8-16c3.2-1.6,9.1-2.3,11.1-2.5
					c0.2,2.5,1.4,9.7,7.5,12.1c0,1-0.4,3.8-4.2,8.7c-0.5,0.7-1.2,1.6-2.1,2.7c-6.3,8.3-21,27.8-25.7,29.8c-1.5,0.6-4,1.5-6.9,2.6
					c-7.9,2.8-17.7,6.3-20.6,9.3c-2.5,2.5-4.6,11.9-6.5,20.2c-1.1,4.9-2.2,9.9-2.9,10.7c-1,1.2-3.1,2.3-4.7,3.1
					c-1.7,0.9-2.7,1.4-3.1,2c-0.2,0.4-0.1,0.8,0.2,1.1c0.4,0.2,0.8,0.1,1.1-0.2c0.2-0.3,1.5-1,2.5-1.5c1.8-0.9,4-2,5.2-3.5
					c0.9-1,1.8-4.8,3.2-11.3c1.7-7.3,3.9-17.3,6.1-19.4c2.7-2.7,12.7-6.3,20-8.9c2.9-1,5.5-2,7-2.6c5.1-2.2,19.4-21.2,26.3-30.3
					c0.8-1.1,1.5-2,2-2.7c5.1-6.7,4.5-10.1,4.4-10.4c-0.1-0.3-0.3-0.5-0.5-0.5c-6.7-2.3-7-11.5-7-11.6c0-0.2-0.1-0.4-0.3-0.6
					c-0.2-0.1-0.4-0.2-0.6-0.2c-0.3,0-8.3,0.6-12.5,2.7c-3.1,1.5-10.3,9.1-17.2,16.4c-2.8,2.9-5.4,5.7-7.7,8
					c-7.7,7.7-11.9,8.1-20.3,8.9c-7.4,0.7-10.5-0.7-11-1c-0.2-0.3-0.2-0.8-0.2-1.2c0-0.4,0-1.5-1-1.5c-0.2,0-0.5,0.1-1,0.3
					c-1.3,0.6-4.3,1.9-9.8,2.6c-5.4,0.7-9.4-3.6-11.1-5.4c-0.6-0.6-0.8-0.8-1.1-1c-0.5-0.2-1.3-0.6-5.8,4.3
					c-8.8-0.2-17.8,3.1-23.9,5.5c-7,2.9-34.9,22.6-36.1,28.1c-0.3,1.5-1.3,5.3-2.6,10c-3.9,14.7-7.1,27-6.8,29.5
					c0.2,1.4,0,3.7-0.2,6.1c-0.3,3.6-0.6,7.6,0.2,10.4C197.8,172.3,201.1,173.1,204.8,173.1z"/>
				<path class="st1" d="M284.6,90.4c2.5,0,4.9-0.4,7.1-1.1c7.8-2.7,7.7-5.3,7.6-5.8c-0.1-0.4-0.5-0.7-0.9-0.6
					c-0.4,0.1-0.7,0.5-0.6,0.8c0,0.1-0.3,1.9-6.6,4.1c-7,2.4-17,1.1-23.8-7.3c-0.3-0.3-0.8-0.4-1.1-0.1c-0.3,0.3-0.4,0.8-0.1,1.1
					C271.3,87.8,278.3,90.4,284.6,90.4z"/>
				<polygon class="st3" points="352.8,28.7 449.2,11.8 360,14.9 				"/>
				<polygon class="st2" points="368.6,14.6 368.6,10.2 449.2,11.8 				"/>
				<polygon class="st3" points="363.4,10.1 380.1,1.4 449.2,11.8 				"/>
				<path class="st1" d="M372.5,61.1c0.2,0,0.4-0.1,0.6-0.3c0.1-0.1,11.9-13.9,15.5-16.7c0.7-0.6,1.5-1.2,2.3-1.8
					c3.2-2.6,6.8-5.5,10.4-7.1c4.8-2.1,11-12,11.3-12.4c0.2-0.4,0.1-0.8-0.3-1.1c-0.4-0.2-0.8-0.1-1.1,0.3
					c-0.1,0.1-6.2,10-10.6,11.8c-3.9,1.6-7.6,4.6-10.8,7.3c-0.8,0.6-1.5,1.2-2.2,1.8c-3.7,2.9-15.2,16.3-15.7,16.9
					c-0.3,0.3-0.2,0.8,0.1,1.1C372.2,61,372.3,61.1,372.5,61.1z"/>
				<polygon class="st2" points="396.1,21 447.1,11.8 394.3,27.7 				"/>
				<path class="st2" d="M386.5,30l-18.9,5.7l-1.3-9.4l22.5-4.1c0,0-0.5,2.9-0.8,4.1C387.7,27.5,386.5,30,386.5,30z"/>
				<path class="st1" d="M291.4,82.3c0.1,0,0.1,0,0.2,0c0.4-0.1,0.7-0.6,0.5-1c0-0.1-1.5-5.2,0-8.7c0.2-0.4,0-0.9-0.4-1
					c-0.4-0.2-0.9,0-1,0.4c-1.6,4.1-0.1,9.5,0,9.8C290.8,82.1,291.1,82.3,291.4,82.3z"/>
				<path class="st1" d="M274.1,79.6c0.2,0,0.5-0.1,0.6-0.3c2.1-2.9,5.7-8.1,5.5-9.5c0-0.4-0.4-0.8-0.8-0.7c-0.4,0-0.7,0.4-0.7,0.8
					c-0.1,0.8-2.8,5-5.3,8.4c-0.3,0.3-0.2,0.8,0.2,1.1C273.7,79.5,273.9,79.6,274.1,79.6z"/>
				<path class="st1" d="M186.9,200.9c0.2,0,0.4,0,0.6-0.1c2.2-0.5,10.6-9.1,12.2-11.2c1.5-2,3.6-3.2,4.4-3.5
					c0.5,0.5,1.4,2.4,1.6,4.1c0.2,2,0.5,3.9,1.6,4.7c0.4,0.3,1,0.5,1.9,0.2c2.4-0.7,2-2.9,1.5-6l-0.2-1.1c-0.4-2.5-1.8-5.2-2.7-6.8
					c-0.2-0.4-0.5-0.9-0.6-1.1c0.6-1,3.2-5.2,4.9-8c0.2-0.4,0.1-0.8-0.3-1.1c-0.4-0.2-0.8-0.1-1.1,0.3c-0.8,1.3-4.9,8-5.1,8.4
					c-0.2,0.5,0,0.9,0.7,2.3c0.8,1.5,2.2,4.1,2.5,6.3l0.2,1.1c0.5,3.2,0.6,4-0.4,4.3c-0.4,0.1-0.5,0-0.6,0c-0.7-0.5-0.9-2.8-1-3.6
					c-0.2-2.2-1.5-4.8-2.4-5.4c-0.4-0.3-0.8-0.2-1-0.2c-0.8,0.3-3.6,1.8-5.4,4.2c-2.1,2.8-9.9,10.3-11.2,10.6
					c-0.1,0-0.4,0.1-0.5-0.1c-0.1-0.3,0-1.2,1.2-2.3c1.5-1.4,6.6-8,6.2-9.6c-0.1-0.4-0.4-0.6-0.7-0.7c-0.7-0.1-1.5,0.4-5.6,4.1
					c-2.1,1.9-5.4,4.7-6.2,4.9c-0.4,0.1-0.7,0.1-0.9,0.1c0.1-0.2,0.3-0.5,0.6-0.9c0.7-0.9,1.9-2.3,3.2-3.7c1.8-2,3.5-3.8,4.1-4.9
					c0.2-0.4,0.1-0.9-0.3-1.1c-0.4-0.2-0.9-0.1-1.1,0.3c-0.5,0.9-2.3,2.9-3.9,4.6c-1.3,1.5-2.6,2.8-3.3,3.8c-0.7,1-1.3,2-0.8,2.8
					c0.5,0.8,1.6,0.6,2.7,0.4c1.2-0.2,3.4-2.1,6.9-5.3c0.9-0.8,2.1-1.8,3-2.6c-1.2,2-3.5,5.3-4.9,6.5c-1.5,1.4-2.1,3-1.5,4.2
					C185.6,200.5,186.2,200.9,186.9,200.9z"/>
				<path class="st1" d="M179.1,194.4c1.1,0,2.5-0.5,3.2-0.9c0.4-0.2,0.5-0.7,0.3-1.1c-0.2-0.4-0.7-0.5-1.1-0.3
					c-1,0.6-2.4,0.8-2.7,0.7c0,0-0.1-0.1-0.1-0.1l0,0c0,0,0-0.5,1.5-1.8c2.1-2,5.4-6.3,6.8-8.1c0.2-0.3,0.2-0.8,0-1.1
					c-0.9-1.1-8.9,2.6-9,2.6c-0.1,0-0.1,0-0.2,0c0-0.1,0-0.6,1-1.5c1.2-1,8.2-3.6,18.6-6.8l0.2-0.1c2.2-0.7,3.1-3.8,3.2-4.2
					c0.1-0.4-0.1-0.8-0.5-1c-0.4-0.1-0.8,0.1-1,0.5c-0.2,0.7-1,2.7-2.2,3.1l-0.2,0.1c-7.7,2.4-17.3,5.6-19.1,7.1
					c-1.7,1.4-1.8,2.8-1.3,3.5c0.4,0.7,1.3,0.9,2.1,0.5c0.8-0.4,3.8-1.6,5.8-2.3c-1.5,2-3.8,4.8-5.4,6.3c-1.4,1.3-2,2.2-2,3.1
					c0,0.7,0.5,1.1,0.7,1.2C178.2,194.3,178.6,194.4,179.1,194.4z"/>
				<path class="st1" d="M302.6,14.6c0,0,9.6,2.5,10.9,7.8c1.3,5.3,0,10.7-4.2,10.2c-4.2-0.5-9.6-4.2-13.3-3.9
					c-3.6,0.3-2.9,1.6-1.6,3.9c1.3,2.3-1,6.2-7.5,4.4c-6.5-1.8-6.8-5.2-11.4-3.9c-4.7,1.3-0.4,12-1.5,13.5c-1.1,1.6-1.3,3.6-3.8,0
					c-2.5-3.6-6.1-8.6-10-7.3c-3.9,1.3,3.6,8.8,7.5,10.4c3.9,1.6,3.9,1.6,3.9,1.6s1.6,10.9,3.9,12.5c0,0-15.6-2.1-21.6-7.5
					c-6-5.5-0.8-5.5-1.8-8.3c-1-2.9-7-3.1-7-6.6c0-3.5,0.8-3,6.2-5.6c5.5-2.6,3.9-3.9,3.1-5.2c-0.8-1.3-1.6-3.6,2.9-4.9
					c4.4-1.3,14.9-4.4,12.9-7.3c-2-2.9-2.9-8.6,3.8-8.1c6.7,0.5,13.1,4.9,16.9,4.4C294.8,14.1,298.4,13.1,302.6,14.6z"/>
				<path class="st1" d="M289.1,72.8c-0.1-0.4,0.2-0.8,0.6-0.9c0.4-0.1,1.1-0.2,1.8-0.4c4.4-1,13.7-3,18.4-6.4
					c5.4-3.8,4.3-13.9,3.4-16.9c-0.9-2.9-2.9-12.1-3.5-14.7c-0.3,0-0.5,0-0.6-0.1c-1.9-0.3-4.1-1.1-6.2-2c-2.4-1-5-2-6.8-1.9
					c-1.7,0.1-1.9,0.5-1.9,0.5c-0.2,0.3,0.5,1.4,1,2.3c0.7,1.3,0.6,2.9-0.4,4.1c-0.7,0.9-2.9,2.9-8,1.4c-2.9-0.8-4.6-1.9-5.9-2.8
					c-1.8-1.1-2.7-1.8-5.1-1.1c-2.4,0.7-1.7,5.2-1.1,8.6c0.4,2.5,0.6,3.9,0.1,4.7c-0.2,0.3-0.3,0.5-0.5,0.8
					c-0.4,0.7-0.9,1.5-1.8,1.6c-0.8,0-1.6-0.6-2.8-2.4c-2.9-4.2-6-8-9.1-7c-0.5,0.2-0.5,0.4-0.6,0.6c-0.1,2.1,5.1,7.1,8.1,8.3
					l3.9,1.6c0.2,0.1,0.4,0.3,0.5,0.5c0,0.1,2.4,9.7,3.8,12.3c0.1,0.1,0.2,0.3,0.3,0.6c0.8,1.6,2.5,4.8,5.5,6.4
					c0.4,0.2,0.5,0.7,0.3,1.1c-0.2,0.4-0.7,0.5-1.1,0.3c-3.5-1.8-5.3-5.4-6.2-7.1c-0.1-0.2-0.2-0.4-0.3-0.5
					c-1.4-2.5-3.4-10.4-3.9-12.3l-3.5-1.4c-3.4-1.4-9.2-6.7-9.1-9.8c0-1,0.6-1.7,1.6-2c4.7-1.6,8.7,4.4,10.9,7.6
					c1,1.5,1.5,1.7,1.4,1.7c0.1-0.1,0.4-0.5,0.5-0.8c0.2-0.3,0.3-0.6,0.5-0.9c0.2-0.4-0.1-2.2-0.3-3.5c-0.6-3.9-1.5-9.3,2.3-10.3
					c3-0.8,4.5,0.1,6.3,1.3c1.3,0.8,2.9,1.9,5.5,2.6c2.9,0.8,5.3,0.5,6.4-0.9c0.6-0.7,0.7-1.6,0.2-2.4c-0.9-1.5-1.5-2.7-1-3.8
					c0.5-1,2-1.2,3.2-1.3c2.2-0.2,4.8,0.9,7.5,2c2,0.8,4.2,1.7,5.9,1.9c0.1,0,0.2,0,0.3,0.1c0.1,0,0.2,0,0.5-0.1
					c0.2,0,0.4,0,0.6,0.1c0.2,0.1,0.3,0.3,0.3,0.5c0,0.1,2.6,12,3.6,15.3c1.1,3.5,2.2,14.3-3.9,18.7c-5,3.6-14.5,5.6-19,6.6
					c-0.7,0.2-1.3,0.3-1.8,0.4c-0.1,0-0.1,0-0.2,0C289.5,73.4,289.2,73.2,289.1,72.8z M309.9,32.1C309.9,32.1,309.9,32.1,309.9,32.1
					C309.9,32.1,309.9,32.1,309.9,32.1z M309.9,32.1C309.9,32.1,309.9,32.1,309.9,32.1C309.9,32.1,309.9,32.1,309.9,32.1z
					 M309.9,32.1C309.9,32.1,309.9,32,309.9,32.1C309.9,32,309.9,32.1,309.9,32.1z"/>
				<path class="st1" d="M312.8,44.1c0.1,0,0.2,0,0.4-0.1c4-2.1,6.4-6.4,7.2-9.6c0.2-1,0.6-2.8,0-3.6c-0.4-0.6-1.1-0.9-1.9-0.8
					c-1.3,0.1-3.1,1.3-4.3,4.2c-1.5,3.5-2.7,5.1-2.7,5.1c-0.3,0.3-0.2,0.8,0.1,1.1c0.3,0.3,0.8,0.2,1.1-0.1c0.1-0.1,1.4-1.8,3-5.5
					c1.1-2.5,2.4-3.2,3.1-3.3c0.3,0,0.4,0.1,0.5,0.2c0.4,1-1.1,8-6.6,10.9c-0.4,0.2-0.5,0.7-0.3,1.1
					C312.2,43.9,312.5,44.1,312.8,44.1z"/>
				<path class="st1" d="M281,41.9c0.1,0,0.3,0,0.4,0c0.7-0.1,1.1-0.6,1.3-1.3c0.2-0.9,2.2-2.2,3.5-2.9c0.4-0.2,0.5-0.7,0.4-1
					c-0.2-0.4-0.7-0.5-1-0.4c-0.6,0.3-3.9,2-4.3,3.9c0,0.1-0.1,0.1-0.1,0.1c-0.2,0.1-0.6-0.1-0.9-0.4c-0.2-0.3-0.2-0.5,0-0.9
					c1-1.9,1.7-3,2.6-3.2c0.4-0.1,0.7-0.5,0.6-1c-0.1-0.4-0.5-0.7-1-0.6c-1.6,0.4-2.5,2-3.6,4c-0.5,0.9-0.4,1.8,0.2,2.5
					C279.4,41.5,280.2,41.9,281,41.9z"/>
				<path class="st1" d="M309,36.5c0.1,0,0.2,0,0.2,0c1-0.3,1.6-0.9,1.8-1.6c0.3-1.1-0.5-2.1-0.6-2.2c-0.3-0.3-0.8-0.3-1.1-0.1
					c-0.3,0.3-0.3,0.8-0.1,1.1l0,0c0.1,0.2,0.4,0.5,0.3,0.8c0,0.1-0.2,0.3-0.5,0.4c-0.7-0.3-2.5-1.1-4.6-1.1c-0.5,0-0.8-0.3-1-0.8
					c-0.2-0.6-0.2-1.2-0.1-1.5c0.4,0,0.7-0.2,0.8-0.5c0.1-0.4,0-0.8-0.4-1c-0.5-0.2-1.1-0.1-1.5,0.3c-0.7,0.7-0.7,2.2-0.3,3.2
					c0.4,1.1,1.3,1.8,2.4,1.8c2.3,0.1,4.2,1.1,4.2,1.1C308.7,36.5,308.8,36.5,309,36.5z"/>
				<path class="st1" d="M307,41.1c1.1-0.4,1.7-0.7,2.4-0.8c0.3-0.1,0.7-0.2,1.1-0.2c0.4-0.1,0.9-0.1,1.4-0.3c-0.6-1-1.8-1.4-3-1.2
					C307.9,39,306.9,40,307,41.1z"/>
				<path class="st1" d="M292.9,43.3c-0.5-0.7-1.2-1.1-2-1.3c-0.8-0.2-1.6-0.3-2.4-0.1c-0.8,0.2-1.6,0.5-2.2,1.1
					c-0.6,0.5-1.1,1.2-1.3,1.9c0.8-0.3,1.4-0.6,2-0.8c0.6-0.3,1.2-0.4,1.8-0.6c0.6-0.2,1.2-0.2,1.9-0.3
					C291.4,43.3,292.1,43.3,292.9,43.3z"/>
				<path class="st1" d="M302.3,52.6c-0.1,0-2.3-0.7-2.5-3.6c-0.1-2.4-1-8-1-8.1c0-0.2,0-0.4,0.1-0.5c0.1-0.1,0.8-1.3,2-1.4
					c0.5-0.1,1.3,0,2.1,0.9c0.1,0.1,0.1,0.1,0.1,0.2l3.8,7.6c0.2,0.3,1,1.6,0.7,2.7c-0.1,0.5-0.5,0.9-1,1.2c-1.5,0.7-4,1.2-4.1,1.2
					c-0.1,0-0.1,0-0.1,0C302.4,52.6,302.3,52.6,302.3,52.6z M301.1,40.4c-0.3,0-0.5,0.3-0.7,0.5c0.2,1.2,0.8,5.8,0.9,8
					c0.1,1.5,0.8,2,1.2,2.1c0.6-0.1,2.4-0.5,3.5-1c0.1-0.1,0.1-0.1,0.2-0.2c0.1-0.3-0.2-1-0.5-1.5l-3.8-7.5
					C301.6,40.5,301.3,40.4,301.1,40.4z"/>
				<path class="st2" d="M312,43.2c-0.8-0.2-1.1-0.1-1.8,0.2c-2,0.8-2.7,3.8-2.3,4.9c0.4,1.1,1.8-0.1,3.9-0.9
					c0.7-0.3,0.7-0.1,1.3-0.2L312,43.2z"/>
				<path class="st2" d="M296,50.8c0.2,1.4-2.3,1-5.2,1.5c-2.9,0.5-5.2,1.6-5.4,0.2c-0.2-1.4,1.6-4.8,4.6-5.3
					C292.9,46.7,295.8,49.4,296,50.8z"/>
				<path class="st1" d="M303.3,58.5c-1.8-0.5-3.3-0.8-4.7-1.3c-0.7-0.2-1.4-0.5-2.1-0.8c-0.7-0.3-1.4-0.7-2.2-1.1
					c0.2,0.9,0.6,1.8,1.3,2.4c0.7,0.7,1.5,1.1,2.4,1.4c0.9,0.2,1.8,0.3,2.7,0.2C301.6,59.3,302.5,59,303.3,58.5z"/>
				<path class="st2" d="M269.1,123.6c0,7.4,3.1,13.5,14.3,13.5c7.9,0,12.6-6,12.6-13.5c0-7.4-3.2-13.5-12.6-13.5
					C274,110.1,269.1,116.2,269.1,123.6z"/>
				<path class="st1" d="M284.8,125.3c0.1,0,0.2,0,0.2,0c0.4,0,1.3-0.1,1.5-0.7c0.2-0.6-0.3-1.1-0.7-1.4c-0.1-0.1-0.4-0.4-0.5-0.5
					c0,0,0.1,0,0.1-0.1c1-0.7,7.8-0.5,13.7,0.1c0.4,0,0.8-0.3,0.9-0.7c0-0.4-0.3-0.8-0.7-0.9c-2.1-0.2-12.8-1.3-14.8,0.1
					c-0.5,0.4-0.8,0.8-0.8,1.3c0,0.5,0.2,0.8,0.4,1.2c-0.6,0-1.5-0.2-2.6-0.3c-4.5-0.5-12-1.4-18.7,0.3c-0.4,0.1-0.7,0.5-0.6,1
					c0.1,0.4,0.5,0.7,1,0.6c6.4-1.7,13.7-0.8,18.1-0.3C282.9,125.1,284,125.3,284.8,125.3z"/>
				<path class="st1" d="M393.6,34.2c0.3,0,0.6-0.2,0.7-0.5c0.8-1.8,0.8-5.2,0.8-5.9l1.8-6.5c0.1-0.3,0-0.5-0.2-0.7
					c-0.2-0.2-0.4-0.3-0.7-0.2l-6.5,1.1c-0.3,0.1-1.9,0.5-2.2,4c-0.1,1.6-0.6,2.7-1.5,4.1c-0.2,0.4-0.1,0.8,0.3,1.1
					c0.4,0.2,0.8,0.1,1.1-0.3c1-1.6,1.5-2.9,1.7-4.8c0.2-2.3,0.9-2.6,0.9-2.7l5.2-0.9l-1.5,5.4c0,0.1,0,0.1,0,0.2c0,1-0.1,4-0.6,5.4
					c-0.2,0.4,0,0.9,0.4,1C393.4,34.1,393.5,34.2,393.6,34.2z"/>
				<path class="st1" d="M365,48.7c0.1,0,0.3,0,0.4-0.1c1.8-1.1,17.4-10.5,19.5-14.3c0.1-0.2,0.1-0.6,0-0.8c0,0-0.6-1-0.8-2.6
					c0-0.4-0.4-0.8-0.8-0.7c-0.4,0-0.7,0.4-0.7,0.8c0.1,1.3,0.5,2.3,0.8,2.8c-2.3,3.2-14.2,10.7-18.7,13.4c-0.4,0.2-0.5,0.7-0.3,1.1
					C364.5,48.6,364.7,48.7,365,48.7z"/>
				<g>
					<path class="st1" d="M343.4,305.9c-2.8,3.3-9.5,9.8-18.2,9.9c-8.7,0.1-10.7-1.3-11.8-2.6c-1.1-1.3-2.8-3.6-3.9-1.2
						c-1.1,2.4-1.2,5.6-3.2,6.1c-2,0.6-15,3.5-20-1.9c-0.2-0.2-0.4-0.4-0.5-0.7c0,0,0-0.3,0.1-0.8c0.2-2.6,0.8-10.7,1.3-11.2
						c0.2-0.1,0.8-0.2,1.6-0.2c0.5,0,1,0,1.6,0c2.5,0.1,5.8,0.3,6.8-0.2c1.6-0.8,2.5,3.5,3.5,4.1c1,0.5,3.2-1.6,1.7-4.3
						c-0.6-1.1,0.1-2.6,1.2-4c0.3-0.4,0.7-0.8,1.1-1.2c1.4-1.4,3.1-2.4,3.8-2.3c1.5,0.1,11.1,4.1,18.6,4.5
						c7.4,0.4,13.3-0.9,15.4,0.1c0.6,0.3,1.1,0.6,1.6,1c0,0,0,0,0,0c0.3,0.3,0.6,0.6,0.8,0.9C345.1,303.1,344.9,304.3,343.4,305.9z"
						/>
					<path class="st1" d="M348.2,311.3c-2,2.5-9.2,8.5-17.5,9.8c-4,0.6-7.7,0.2-10.8-0.1c-2.7-0.3-5-0.6-6,0.2
						c-0.5,0.4-1,0.8-1.5,1.2c-1.9,1.6-4.1,3.3-7.5,4.2c-1.7,0.4-3.8,0.7-6,0.7c-3.6,0-7.5-0.6-10.4-2.1c-4.7-2.4-5.6-5.2-3.3-9.8
						c0.1-0.3,0.5-0.5,0.8-0.4c0.1,0,0.2,0,0.3,0.1c0.4,0.2,0.5,0.7,0.3,1c-0.1,0.1-0.1,0.2-0.1,0.3c-1.7,3.6-1,5.5,2.8,7.4
						c4.2,2.2,11.1,2.4,15.4,1.3c3.1-0.8,5.1-2.4,6.9-3.9c0.5-0.4,1.1-0.9,1.6-1.3c1.5-1.1,4-0.8,7.1-0.5c2.9,0.3,6.6,0.7,10.3,0.1
						c7.4-1.2,14.5-6.6,16.6-9.2c1.9-2.4,1.2-4.3,0-6.6c-0.9-1.7-2-1.5-2.2-1.5c-0.1,0-0.1,0-0.2,0c-0.3,0-0.7-0.2-0.7-0.6
						c0-0.1,0-0.2,0-0.3c0,0,0,0,0,0c0.1-0.3,0.3-0.6,0.6-0.6c0.9-0.2,2.8,0,3.9,2.3C349.7,305.6,350.7,308.3,348.2,311.3z"/>
				</g>
				<path class="st1" d="M306.2,300.6c-0.1,0.3-0.4,0.4-0.7,0.4c-0.1,0-0.2,0-0.3-0.1c-0.2-0.1-0.8-0.4-1.7-1.7
					c-1.3-1.9-3.3-5.6-5.4-13.3c-0.4-1.3-0.7-2.7-1.1-4.3c0-0.1,0-0.3,0-0.4c0.1-0.3,0.3-0.5,0.6-0.5c0.2,0,0.4,0,0.6,0.1
					c0.2,0.1,0.3,0.3,0.3,0.5c0.4,1.7,0.8,3.3,1.3,4.7c2,6.8,3.7,10.3,4.9,12c0.8,1.2,1.3,1.5,1.3,1.5
					C306.3,299.8,306.4,300.3,306.2,300.6z"/>
				<path class="st1" d="M290.5,305.8c0,0.4-0.4,0.7-0.8,0.7c0,0,0,0,0,0c-0.4,0-0.8-0.4-0.7-0.8c0-0.6,0-1.3-0.2-2.2
					c-0.9-5.3-5-14.7-6.7-18.3c-0.2-0.5-0.4-0.9-0.6-1.2c-0.1-0.2-0.2-0.3-0.2-0.3c-0.2-0.4,0-0.8,0.3-1c0,0,0,0,0,0
					c0.4-0.2,0.9,0,1,0.4c0,0,0,0,0,0v0c0.1,0.2,0.3,0.6,0.6,1.2c0.1,0.3,0.3,0.7,0.5,1.1c1.9,4.2,5.7,13,6.5,18.3
					C290.5,304.4,290.5,305.1,290.5,305.8z"/>
				<path class="st1" d="M281.9,284.1c-2.1-0.4-9.5-2.5-13.5-13c-3.3-8.8-4-37-4-37.3c0-1.1,0.9-2.7,2.4-5.3
					c0.6-1.1,1.5-2.6,1.9-3.4c0,0-0.1,0-0.1,0c-1.6,0.7-3.1,2-4.4,2.9c-1.5,1.2-2.3,1.9-3.1,1.4c-0.7-0.5-0.5-1.5-0.2-2.5
					c0.3-1.3,0.7-2.4,1-3.3c0.2-0.7,0.5-1.5,0.6-2c-1.9,0.4-3.8,0.5-5.4-1c-1.2-1.2-19.9-31.6-21.3-38.2c-1.4-6.6-1.6-15.5,0.5-18.9
					c1.9-3.1,4.3-6.3,4.3-6.3c0.3-0.3,0.7-0.4,1.1-0.2c0.3,0.3,0.4,0.7,0.2,1.1c0,0-2.3,3.1-4.3,6.2c-1.6,2.6-1.8,10.6-0.3,17.8
					c1.3,6.4,19.8,36.3,20.8,37.4c0.8,0.8,1.9,1,4,0.6c0.7-0.1,1.2,0,1.5,0.4c0.6,0.7,0.3,1.7-0.4,3.6c-0.3,0.9-0.7,2-1,3.2
					c0,0.1,0,0.2-0.1,0.2c0.3-0.2,0.6-0.5,0.9-0.7c1.2-1,2.9-2.3,4.7-3.1c0.4-0.2,1.5-0.7,2.1,0c0.8,0.9-0.1,2.4-1.9,5.6
					c-0.9,1.6-2.2,3.7-2.2,4.5c0,2.7,0.8,28.9,3.8,36.8c3.7,9.7,10.3,11.6,12.3,12c4,0.7,14.8-2.3,19.4-5c3.7-2.2,2.3-12,1.2-19.8
					c-0.2-1.1-0.3-2.2-0.4-3.2c-0.6-4.3-0.4-12.4-0.3-20.2c0.2-8.7,0.3-17.6-0.5-21.1c-1.5-6.4-15.4-31.9-15.5-32.2
					c-0.2-0.4-0.1-0.9,0.3-1.1c0.4-0.2,0.9-0.1,1.1,0.3c0.6,1.1,14.1,25.9,15.7,32.6c0.8,3.6,0.7,12.3,0.5,21.4
					c-0.1,7.8-0.3,15.8,0.3,20c0.1,1,0.3,2.1,0.4,3.2c1.2,8.8,2.6,18.7-2,21.4c-4.4,2.6-13.6,5.3-18.7,5.3
					C283,284.2,282.4,284.1,281.9,284.1z M263,221.6L263,221.6L263,221.6z"/>
				<path class="st1" d="M212.8,259.6c0.7,0,1.3,0,1.9-0.1c3.2-0.2,14.5-3.9,24.4-7.2c5.9-2,11.6-3.8,14.4-4.5
					c7.6-2,12.3-7.8,12.5-8.1c0.3-0.3,0.2-0.8-0.1-1.1c-0.3-0.3-0.8-0.2-1.1,0.1c0,0.1-4.6,5.7-11.7,7.5c-2.8,0.7-8.5,2.6-14.5,4.6
					c-9.3,3.1-21,6.9-24,7.1c-4.6,0.4-12.3-0.6-14.9-4.7c-2.6-4.1-2.9-14.1-2.2-16.5l0.1-0.3c0.8-3,2.8-9.9,9.1-12
					c8-2.7,21.9-6.5,23.4-6.2c0.3,0.1,0.6,0.8,0.9,1.3c0.3,0.7,0.6,1.4,1.4,1.4c0.8,0,1.2-0.8,1.4-1.2c0.3-0.6,0.6-1.2,0.8-1.9
					c0.4-1,1.3-3.2,1.8-3.3c0.5,0.4,1.2,1.2,1.7,2c1.2,1.6,2.1,2.6,3,2.3c0.8-0.3,0.8-1.3,0.8-1.7c0-1-0.2-2-0.3-2.8
					c-0.4-2.2-0.4-2.9,1-3.5c3.5-1.3,4.2-7,4.2-9.1c0-0.4-0.3-0.8-0.8-0.8c-0.4,0-0.8,0.3-0.8,0.8c0,1.4-0.5,6.7-3.2,7.7
					c-2.8,1.1-2.4,3.3-2,5.2c0.1,0.7,0.3,1.5,0.3,2.3c-0.3-0.4-0.7-0.9-1.1-1.3c-0.7-0.9-1.4-1.7-2-2.2c-0.5-0.4-1.1-0.4-1.4-0.3
					c-1.2,0.3-2,2.1-2.9,4.2c-0.2,0.6-0.5,1.2-0.7,1.7c0,0,0,0,0,0c-0.4-0.8-0.9-1.9-1.9-2.2c-2-0.5-19,4.5-24.2,6.3
					c-7.1,2.4-9.3,10.1-10.2,13.1l-0.1,0.3c-0.8,2.8-0.5,13.2,2.4,17.8C201.2,258.5,208.2,259.6,212.8,259.6z"/>
			</g>
			<g>
				<path class="st1" d="M110.7,308.9c-0.4,0.1-0.8-0.2-0.9-0.6c-0.2-0.8-0.4-1.5-0.6-2.3c-0.2-0.7-0.5-1.4-0.8-2.2l0,0
					c-5.2-13.2-18.9-24.8-20.3-25.3c-1.2-0.5-2.1-1.3-2.8-2c-0.3-0.3-0.6-0.6-0.9-0.8c-0.1,1,0.2,5.1,7.3,18.5
					c3.3,6.3,6.8,9.9,9.8,12c0,0,0.1,0,0.1,0.1c4.4,3,7.7,2.6,7.7,2.5c0.4-0.1,0.8,0.2,0.9,0.7c0.1,0.4-0.2,0.8-0.7,0.9
					c-0.1,0-0.3,0-0.8,0c-0.8,0-2.1-0.1-3.8-0.7c-0.8-0.3-1.7-0.7-2.7-1.2c-0.8-0.4-1.6-0.9-2.4-1.6c0,0-0.1-0.1-0.1-0.1
					c-3-2.3-6.2-5.9-9.4-11.9c-3.5-6.6-9-18-7.1-20.5c0.3-0.4,0.7-0.6,1.2-0.5c0.7,0.1,1.3,0.7,2,1.3c0.7,0.6,1.4,1.3,2.3,1.7
					c0.5,0.2,2.3,1.6,4.7,3.7c0.8,0.7,1.6,1.5,2.5,2.4c4.2,4.2,9.3,10.2,12.6,16.9c0.5,1.1,1,2.2,1.4,3.3c0.3,0.8,0.6,1.5,0.8,2.3
					c0,0,0,0,0,0c0.2,0.7,0.4,1.5,0.6,2.3C111.4,308.4,111.1,308.8,110.7,308.9z"/>
				<path class="st1" d="M108.2,308.4c-0.2,0.2-0.4,0.3-0.6,0.3c-0.2,0-0.4-0.1-0.5-0.2c-0.1-0.1-1.4-1.2-3.2-3c0,0,0,0,0-0.1
					c-3.6-3.5-9.2-9.6-12.4-16.3c-0.2-0.4,0-0.9,0.4-1c0.4-0.2,0.9,0,1,0.4c3.2,6.7,9.2,13,12.6,16.3c0,0,0,0,0,0
					c1.5,1.5,2.5,2.3,2.6,2.4C108.4,307.6,108.4,308.1,108.2,308.4z"/>
				<path class="st1" d="M109.4,289.9C109.4,289.9,109.4,289.9,109.4,289.9c0.5,0,0.8-0.4,0.8-0.8c-1.1-12.8-7.3-26-18.6-39.2
					c-0.5-0.6-0.8-0.9-0.9-1.1c-0.2-0.3-0.5-0.8-0.7-1.3c-0.9-1.7-1.6-3.1-2.7-2.8c-0.9,0.3-1.3,1.4-1.1,6.7
					c0.6,10.8,7.9,31.6,8.2,32.5c0.1,0.4,0.6,0.6,1,0.5c0.4-0.1,0.6-0.6,0.5-1c-0.1-0.2-7.6-21.5-8.1-32.1c-0.1-2.6-0.1-4,0-4.6
					c0.3,0.5,0.6,1.1,0.8,1.5c0.3,0.6,0.6,1.1,0.8,1.5c0.1,0.2,0.5,0.6,1,1.3c11,13,17.2,25.9,18.2,38.4
					C108.7,289.6,109,289.9,109.4,289.9z"/>
				<path class="st1" d="M109,297.6c0.1,0,0.1,0,0.2,0c0.4-0.1,0.7-0.6,0.5-1c-4.5-15.5-15.1-35.1-15.2-35.2
					c-0.2-0.4-0.7-0.5-1.1-0.3c-0.4,0.2-0.5,0.7-0.3,1.1c0.1,0.2,10.6,19.6,15.1,34.9C108.4,297.3,108.7,297.6,109,297.6z"/>
				<path class="st1" d="M121,299.9C121,299.9,120.9,300,121,299.9c-3.1,5.3-6.5,8.6-6.7,8.8c-0.1,0.1-0.3,0.2-0.5,0.2
					c-0.2,0-0.4-0.1-0.6-0.2c-0.3-0.3-0.3-0.8,0-1.1c0.1-0.1,2.7-2.7,5.5-6.9c0,0,0-0.1,0.1-0.1c3.2-5,6.4-12.1,5.7-19.9
					c-1.4-15-4.9-25.7-6.4-26.6c-0.6,0.4-0.9,2.6-1.1,4.4c-0.3,2.3-0.7,4.8-1.6,7.1c-0.2,0.6-0.5,1.4-0.8,2.4c0,0.1,0,0.2-0.1,0.2
					c-2.2,7.3-5.5,24.1-4,35.1v0c0.1,0.8,0.2,1.7,0.4,2.4c0,0,0,0,0,0c0.1,0.4-0.2,0.8-0.6,0.9c-0.4,0.1-0.8-0.2-0.9-0.6
					c-0.2-0.7-0.3-1.5-0.4-2.3v0c-0.2-1.2-0.3-2.4-0.3-3.6c-0.1-1-0.1-1.9-0.1-3c0-1.5,0.1-3,0.2-4.6c0.1-1,0.1-2.1,0.2-3.1
					c0.1-1.1,0.2-2.2,0.4-3.3c0.1-0.8,0.2-1.7,0.3-2.5c0.2-1.2,0.3-2.3,0.5-3.4c0.9-5.1,1.9-9.6,2.8-12.6c0,0,0,0,0,0
					c0.3-1.1,0.7-2.1,0.9-2.7c0.3-0.7,0.5-1.4,0.7-2.2c0.4-1.5,0.6-3.1,0.8-4.5c0.4-2.9,0.7-5.2,2.3-5.7c0.3-0.1,0.7-0.1,1.2,0.2
					c2.6,1.7,5.9,14.4,7.1,27.8C126.6,288.1,123.9,294.9,121,299.9z"/>
				<path class="st1" d="M121.2,270.6c0,0.2-0.9,16.8-5.8,31c0,0,0,0,0,0.1c-0.6,1.7-1.3,3.4-2,5c-0.1,0.3-0.4,0.5-0.7,0.5
					c-0.1,0-0.2,0-0.3-0.1c-0.4-0.2-0.6-0.6-0.4-1c0.5-1.2,1.1-2.5,1.5-3.8c0,0,0,0,0,0c5.2-14.1,6.1-31.4,6.2-31.6
					c0-0.4,0.4-0.7,0.8-0.7h0C120.9,269.8,121.2,270.2,121.2,270.6z"/>
				<path class="st1" d="M113.6,268.6c0.4,0,0.8-0.3,0.8-0.7c1.2-20.5-7.3-38.3-11.4-46.8c-1-2-1.8-3.7-2-4.5
					c-0.9-3-2.1-3.5-2.9-3.4c-1.2,0.2-2.8,1.6-3,12c-0.4,13.2,3.5,36.2,3.5,36.4c0.1,0.4,0.5,0.7,0.9,0.6c0.4-0.1,0.7-0.5,0.6-0.9
					c0-0.2-3.8-23.1-3.5-36.1c0.3-9.7,1.7-10.5,1.7-10.5c0.1,0.1,0.6,0.6,1.1,2.3c0.3,1,1.1,2.6,2.1,4.8c4,8.4,12.4,25.9,11.3,46
					C112.8,268.2,113.1,268.5,113.6,268.6C113.5,268.6,113.6,268.6,113.6,268.6z"/>
				<path class="st1" d="M109.8,286.6c0.4,0,0.7-0.3,0.8-0.7c0.3-2.3-0.6-5.9-2.1-12.4c-0.8-3.3-1.7-7.3-2.8-12.3
					c-3.1-14.6-4.9-34.8-5-35c0-0.4-0.4-0.7-0.8-0.7c-0.4,0-0.7,0.4-0.7,0.8c0,0.2,1.8,20.5,5,35.2c1.1,5,2,9.1,2.8,12.3
					c1.5,6.3,2.3,9.8,2.1,11.8C108.9,286.1,109.3,286.5,109.8,286.6C109.7,286.6,109.7,286.6,109.8,286.6z"/>
				<path class="st1" d="M105.3,309.7c-0.1,0-0.2,0.1-0.3,0.1c-2.7,1-6.4-0.1-9.2-1.1c-0.1,0-0.2-0.1-0.2-0.1h0
					c0,0.1,0.1,0.1,0.1,0.1c0,0,0,0.1,0.1,0.1c0.5,0.8,1,1.5,1.2,2.2c0.1,0.6-0.1,1-0.3,1.1c-0.1,0.1-0.1,0.1-0.2,0.2
					c0.5,0.2,1.1,0.3,1.6,0.5c0.4,0.1,0.6,0.6,0.5,1c-0.1,0.3-0.4,0.6-0.8,0.6c-0.1,0-0.1,0-0.2,0c-4.8-1.5-7.1-2.3-8.2-2.8
					c-0.1,0-0.2-0.1-0.3-0.1c-0.7-0.4-0.7-0.7-0.6-1c0.1-0.3,0.3-0.8,1.2-0.8h0c0.8,0,1.7,0.2,2.5,0.4c0.1,0,0.2,0.1,0.3,0.1
					c0.4,0.1,0.8,0.2,1.1,0.3c0.5,0.2,1.1,0.3,1.5,0.5c-0.2-0.4-0.5-0.8-0.7-1.2c-0.1-0.1-0.2-0.2-0.2-0.3c0-0.1-0.1-0.1-0.1-0.2
					c-0.6-0.9-0.9-1.5-0.4-2.1c0.5-0.7,1.6-0.3,2.1-0.1c0.4,0.2,1.1,0.4,2,0.7c0.1,0,0.1,0,0.2,0.1c1.3,0.4,2.9,0.8,4.3,0.8
					c0.9,0,1.7-0.1,2.4-0.4c0.4-0.2,0.9,0,1,0.4C105.9,309.1,105.7,309.6,105.3,309.7z"/>
				<path class="st1" d="M130.9,307.2c-0.2,0.4-0.6,0.6-1,0.4c-1.7-0.8-1.5-3.2-1.3-4.7c0-0.1,0-0.2,0-0.3c-0.1,0.1-0.1,0.1-0.2,0.2
					c-0.8,0.7-1.6,1.3-2.3,1c-0.2-0.1-0.6-0.3-0.7-0.9c0-0.2-0.1-0.4-0.3-0.4c-0.4-0.1-1.4,0.2-2.6,1.6c-2.5,2.7-5.6,4.3-5.7,4.4
					c-0.1,0.1-0.2,0.1-0.4,0.1c-0.3,0-0.6-0.1-0.7-0.4c-0.2-0.4-0.1-0.9,0.3-1.1c0,0,3-1.6,5.3-4.1c2.1-2.2,3.5-2.2,4.2-2
					c0.6,0.2,1,0.6,1.3,1.1c0.2-0.2,0.5-0.4,0.7-0.5c0.8-0.7,1.5-1.2,2.2-0.8c0.6,0.4,0.6,1.1,0.5,2.3c-0.1,1.1-0.2,2.8,0.4,3.2
					C130.9,306.3,131.1,306.8,130.9,307.2z"/>
			</g>
			<g>
				<path class="st1" d="M426.8,253.8c-0.1,0.5-0.1,1.2-0.1,2.1c-0.2,6-0.7,19.9-13.5,37.1c-6.3,8.5-13.5,12.1-19.2,13.6
					c-1.3,0.3-2.4,0.6-3.5,0.7c-1.5,0.2-2.9,0.3-4.2,0.3h-0.2c-1,0-1.9-0.1-2.7-0.1c-2.7-0.3-4.4-0.8-4.5-0.9
					c-0.4-0.1-0.6-0.6-0.5-1c0.1-0.4,0.6-0.6,1-0.5c0,0,4.7,1.5,11,0.6c0.2,0,0.4-0.1,0.6-0.1c5.8-0.9,13.9-4.1,21-13.6
					c12.5-16.7,13-30.4,13.2-36.2c0-1,0.1-1.7,0.1-2.3c0.4-3-0.3-4.8-0.6-4.9c0,0-0.2,0.1-0.3,0.3c-0.4,0.5-0.5,1.1-0.6,1.9
					c-0.3,1.9-0.7,4.4-5.2,7c-6.5,3.8-25.4,15.8-35.9,33.9v0c-1.8,3.2-3.4,6.5-4.6,10.1c-0.2,0.7-0.5,1.4-0.7,2.1
					c-0.1,0.4-0.6,0.7-1,0.5s-0.7-0.6-0.5-1c0.2-0.7,0.4-1.4,0.7-2.1c1.2-3.6,2.8-7.1,4.7-10.3c0.6-1.1,1.3-2.1,1.9-3.1
					c5.1-7.8,11.6-14.4,17.7-19.5c1.6-1.4,3.2-2.6,4.7-3.8c5.1-3.9,9.6-6.7,12.2-8.1c3.8-2.2,4.1-4.2,4.4-5.9c0.1-0.9,0.3-1.9,1-2.7
					c0.9-1.1,1.7-0.9,2.1-0.7C426.8,247.9,427.2,251.1,426.8,253.8z"/>
				<path class="st1" d="M421.1,263.9c0,0.2-3.9,15.7-16.7,27.2c-8.1,7.2-15.8,10.7-20.5,12.4c-2.8,1-4.5,1.3-4.7,1.3
					c0,0-0.1,0-0.1,0c-0.4,0-0.7-0.3-0.8-0.6c-0.1-0.4,0.2-0.8,0.6-0.9c0,0,0.8-0.1,2.2-0.6c4-1.1,13-4.5,22.2-12.7
					c12.5-11.1,16.2-26.2,16.2-26.4c0.1-0.4,0.5-0.7,0.9-0.6C420.9,263.1,421.2,263.5,421.1,263.9z"/>
				<path class="st1" d="M383.5,283c-0.1,1.8-0.2,3.5-0.3,4.8v0c0,0.1,0,0.1,0,0.2c-0.2,2-0.4,3.3-0.4,3.5c0,0.1,0,0.2-0.1,0.3v0
					c-0.2,0.3-0.5,0.4-0.8,0.4c-0.4-0.1-0.7-0.5-0.7-0.9c0,0,0-0.1,0-0.1c0.2-1.7,2.6-20.1-2.4-30.9c-1.4-3-2.8-5.7-4-8.1
					c-3.5-7-6.1-12.1-6.2-17.4c-0.1-3.7-0.2-9.8-1.4-11c-0.1,0-0.1-0.1-0.1-0.1c0,0-0.1,0-0.1,0c-0.3-0.1-1,0.2-1.8,1
					c-3.7,3.8-9.8,18.1-9.1,48.1c0.3,12.2,3.4,19.5,6.7,23.9c4.1,5.4,8.6,6.3,8.7,6.3c0.4,0.1,0.7,0.5,0.6,0.9
					c-0.1,0.4-0.4,0.6-0.8,0.6c0,0-0.1,0-0.1,0c-0.1,0-0.9-0.2-2.1-0.7c-0.4-0.2-0.9-0.4-1.4-0.7c-2.1-1.2-4.9-3.3-7.4-7.2
					c-3-4.7-5.5-12-5.7-23.2c-0.6-26.7,4.4-44,9.6-49.2c0.4-0.4,1.5-1.5,2.8-1.5c0.2,0,0.5,0,0.7,0.1c0.3,0.1,0.6,0.3,0.8,0.6
					c1.5,1.7,1.7,5.9,1.8,11.9c0.1,4.9,2.6,9.9,6,16.7c1.2,2.4,2.6,5.1,4,8.2c0.2,0.5,0.4,1,0.6,1.5c1.1,2.7,1.7,5.7,2.2,8.8
					C383.7,274.5,383.7,279.2,383.5,283z"/>
				<path class="st1" d="M394.4,310.1c-0.1,0.4-0.2,1.3-4.8,1.4h0c-0.4,0-0.8-0.3-0.8-0.8c0-0.4,0.3-0.8,0.8-0.8
					c0.7,0,1.5-0.1,2.1-0.2c-0.6-0.1-1.1-0.1-1.7-0.1c-0.9,0-1.9,0.1-3.3-0.3c-2-0.6-2.8-1.4-3.2-2c-0.2-0.3-0.2-0.5-0.3-0.6
					c-0.1-0.4,0.2-0.9,0.6-1c0.4-0.1,0.8,0.1,0.9,0.6c0,0,0.2,0.5,1.5,1.1c0.3,0.1,0.6,0.2,0.9,0.3c1.1,0.3,1.9,0.3,2.7,0.2
					c1,0,2.1-0.1,3.5,0.6C394.2,309,394.5,309.5,394.4,310.1z"/>
				<path class="st1" d="M369.4,302.9c0,0.1-0.1,0.5-0.3,0.9c-0.3,0.5-0.7,1.1-1.4,1.5c-1.1,0.6-1.9-0.4-2.5-1.1c0,0,0-0.1-0.1-0.1
					c0.3,0.5,0.8,1,1.3,1.5c0.3,0.3,0.3,0.8,0,1.1c-0.1,0.2-0.4,0.3-0.6,0.3c-0.2,0-0.4-0.1-0.5-0.2c-0.7-0.6-2.3-2.3-2.2-3.5
					c0-0.4,0.2-0.8,0.6-1c1.1-0.8,2.1,0.3,2.6,1c0.2,0.2,0.6,0.6,0.6,0.7c0.3-0.2,0.6-0.5,0.7-0.8c0.1-0.2,0.2-0.5,0.2-0.6
					c0.1-0.4,0.5-0.7,0.9-0.6C369.3,302.1,369.5,302.5,369.4,302.9z"/>
				<path class="st1" d="M372.2,300.3c0,0.3-0.1,0.6-0.4,0.8c-0.1,0-0.2,0.1-0.3,0.1c-0.3,0-0.6-0.2-0.7-0.5c0,0-0.1-0.3-0.4-0.8
					c-0.5-1.1-1.4-3.4-2.4-6.6c0,0,0,0,0,0c0-0.1-0.1-0.3-0.1-0.4c-3.4-10.5-8.1-30.3-5.5-52.6c0.1-0.4,0.5-0.7,0.9-0.7
					c0.4,0.1,0.7,0.4,0.7,0.9c-3.8,32.4,8.2,59.4,8.3,59.7C372.2,300.1,372.2,300.2,372.2,300.3z"/>
				<path class="st1" d="M382.5,288.3c0.3,0,0.6-0.2,0.7-0.4c0.1-0.2,10.3-20.4,7-50.8c-2.1-19.2-6.3-30.8-9.1-38.5
					c-1.6-4.3-2.6-7.2-2.3-8.9c0.1-0.9,1.4-9-0.9-10c-0.5-0.2-1.2-0.2-2,0.8c-2.3,2.9-9.4,24.7-9,42.7c0,0.4,0.3,0.8,0.8,0.8
					c0.4,0,0.8-0.4,0.8-0.8c-0.4-18.1,6.9-39.5,8.7-41.7c0.1-0.1,0.2-0.2,0.2-0.2c0.4,0.9,0.6,4.1-0.1,8.2c-0.3,2.2,0.7,5.2,2.4,9.7
					c2.8,7.6,6.9,19.2,9,38.2c3.2,29.9-6.7,49.7-6.8,49.9c-0.2,0.4,0,0.9,0.3,1C382.3,288.2,382.4,288.3,382.5,288.3z"/>
				<path class="st1" d="M382.2,270.8c0.4,0,0.8-0.3,0.8-0.8c0-0.3,0.2-6.8-2.4-21c-2.5-14.1-5.4-47.8-5.4-48.1
					c0-0.4-0.4-0.7-0.8-0.7c-0.4,0-0.7,0.4-0.7,0.8c0,0.3,2.9,34.1,5.4,48.3c2.5,14,2.3,20.6,2.3,20.7
					C381.4,270.4,381.8,270.7,382.2,270.8C382.2,270.8,382.2,270.8,382.2,270.8z"/>
				<path class="st1" d="M401.5,269.7c0.2,0,0.4-0.1,0.6-0.3c0.1-0.1,11.3-13.1,14-30.5c2.7-17.4,3.9-23.2,5.6-25.7
					c1-1.5,1.1-3,0.1-3.9c-0.5-0.5-2.7-1.8-7.5,2.1c-6.3,5.2-21.3,24.2-25.1,36.7c-0.1,0.4,0.1,0.8,0.5,1c0.4,0.1,0.8-0.1,1-0.5
					c3.6-12,18.5-30.9,24.6-35.9c3-2.5,4.9-2.7,5.4-2.2c0.3,0.3,0.3,1-0.3,1.9c-2,2.8-3.1,8.4-5.9,26.4c-2.7,17-13.6,29.6-13.7,29.7
					c-0.3,0.3-0.2,0.8,0.1,1.1C401.1,269.7,401.3,269.7,401.5,269.7z"/>
				<path class="st1" d="M384.3,284c0.2,0,0.4-0.1,0.6-0.3c0.1-0.1,6.6-7.9,15.2-20.5c8.7-12.7,13.4-35.4,13.5-36.3
					c0.1-0.4-0.2-0.8-0.6-0.9c-0.4-0.1-0.8,0.2-0.9,0.6c0,0.2-4.8,23.4-13.3,35.8c-8.6,12.5-15.1,20.3-15.1,20.4
					c-0.3,0.3-0.2,0.8,0.1,1.1C384,283.9,384.1,284,384.3,284z"/>
				<path class="st1" d="M407.1,221.1c0.3,0,0.6-0.2,0.7-0.6c0-0.2,5-16.7,6.5-27.4c0.4-2.6,0.7-4.7,1-6.5c0.8-4.6,1-6.3,0.1-7.2
					c-0.6-0.6-1.5-0.4-1.8-0.4c-2.5,0.5-23.8,16.8-29,35.5c-0.1,0.4,0.1,0.8,0.5,1c0.4,0.1,0.8-0.1,1-0.5
					c4.9-17.8,25.4-34,27.8-34.4c0.3-0.1,0.4,0,0.4,0c0.3,0.4-0.1,2.9-0.6,5.8c-0.3,1.7-0.6,3.9-1,6.5c-1.5,10.6-6.4,27-6.4,27.2
					c-0.1,0.4,0.1,0.8,0.5,1C406.9,221.1,407,221.1,407.1,221.1z"/>
				<path class="st1" d="M389.9,244.4c0.4,0,0.7-0.3,0.8-0.6c0-0.1,1.5-7.9,7.6-16.7c6.3-9.1,10-29.4,10.2-30.3
					c0.1-0.4-0.2-0.8-0.6-0.9c-0.4-0.1-0.8,0.2-0.9,0.6c0,0.2-3.9,20.8-9.9,29.7c-6.3,9.1-7.7,17-7.8,17.3c-0.1,0.4,0.2,0.8,0.6,0.9
					C389.8,244.4,389.9,244.4,389.9,244.4z"/>
				<path class="st1" d="M380.7,200.5C380.7,200.5,380.7,200.5,380.7,200.5c0.5,0,0.8-0.4,0.8-0.8c-0.3-7.4,0.6-12.4,3.3-17.5
					l0.3-0.6c5.2-10.2,11.3-22.5,12.2-26.7c0.6-2.7,1.5-3.8,1.9-3.8c0,0,0,0,0,0c0.1,0,1.2,0.1,2.6,4.6c2.3,7.6-3.1,36-3.2,36.3
					c-0.1,0.4,0.2,0.8,0.6,0.9c0.4,0.1,0.8-0.2,0.9-0.6c0.2-1.2,5.6-29.1,3.2-37c-1.2-3.8-2.5-5.7-4.1-5.7c0,0-0.1,0-0.1,0
					c-2,0.1-3,3.2-3.4,5c-1,4.6-9,20.4-12.1,26.4l-0.3,0.6c-2.8,5.4-3.7,10.6-3.4,18.3C380,200.2,380.3,200.5,380.7,200.5z"/>
				<path class="st1" d="M386.3,213c0.4,0,0.7-0.3,0.8-0.7c0-0.1,0.8-10,1.5-16.3c0.7-6.1,8.1-17.9,8.2-18c0.2-0.4,0.1-0.8-0.2-1.1
					c-0.4-0.2-0.8-0.1-1.1,0.2c-0.3,0.5-7.7,12.2-8.4,18.7c-0.7,6.3-1.5,16.2-1.5,16.3C385.5,212.6,385.8,213,386.3,213
					C386.3,213,386.3,213,386.3,213z"/>
			</g>
		</g>
	</g>
	<path class="st5" d="M89.3,311.5c1.1-0.5,2.1-0.9,3.1-1.4c0.6-0.2,1.1-0.5,1.7-0.7c0.5-0.2,1-0.4,1.5-0.6"/>
	<path class="st5" d="M95.8,308.7c0.7-0.3,1.5-0.6,2.2-0.9c0.6-0.3,1.2-0.5,1.9-0.7c0.6-0.2,1.2-0.5,1.8-0.7"/>
	<path class="st5" d="M105.5,304.9c-0.5,0.2-1.1,0.4-1.6,0.6"/>
	<path class="st5" d="M108.4,303.9c0.1-0.1,0.2-0.1,0.4-0.1c0.3-0.1,0.5-0.2,0.8-0.3c0.1,0,0.2-0.1,0.3-0.1c0.1,0,0.3-0.1,0.4-0.1
		c1.1-0.4,2.2-0.7,3.2-1.1c0.6-0.2,1.3-0.4,1.9-0.6c1.1-0.4,2.2-0.7,3.3-1c0.8-0.2,1.5-0.5,2.3-0.7c3-0.9,6-1.6,8.8-2.3"/>
</g>
</svg>
